
<svg width="30px" height="30px" viewBox="0 0 30 30" version="1.1" xmlns="http://www.w3.org/2000/svg" xmlns:xlink="http://www.w3.org/1999/xlink">
    <g id="Page-2" stroke="none" stroke-width="1" fill="none" fill-rule="evenodd">
        <g id="github" fill="#FFFFFF">
            <path d="M15,0 C6.7125,0 0,6.8494898 0,15.3061224 C0,22.0790816 4.29375,27.7997449 10.25625,29.8278061 C11.00625,29.9617347 11.2875,29.502551 11.2875,29.1007653 C11.2875,28.7372449 11.26875,27.5318878 11.26875,26.25 C7.5,26.9579082 6.525,25.3125 6.225,24.4515306 C6.05625,24.0114796 5.325,22.6530612 4.6875,22.2895408 C4.1625,22.002551 3.4125,21.2946429 4.66875,21.2755102 C5.85,21.2563776 6.69375,22.3852041 6.975,22.8443878 C8.325,25.1594388 10.48125,24.5089286 11.34375,24.1071429 C11.475,23.1122449 11.86875,22.442602 12.3,22.059949 C8.9625,21.6772959 5.475,20.3571429 5.475,14.502551 C5.475,12.8380102 6.05625,11.4604592 7.0125,10.3890306 C6.8625,10.0063776 6.3375,8.4375 7.1625,6.33290816 C7.1625,6.33290816 8.41875,5.93112245 11.2875,7.90178571 C12.4875,7.55739796 13.7625,7.38520408 15.0375,7.38520408 C16.3125,7.38520408 17.5875,7.55739796 18.7875,7.90178571 C21.65625,5.9119898 22.9125,6.33290816 22.9125,6.33290816 C23.7375,8.4375 23.2125,10.0063776 23.0625,10.3890306 C24.01875,11.4604592 24.6,12.8188776 24.6,14.502551 C24.6,20.3762755 21.09375,21.6772959 17.75625,22.059949 C18.3,22.5382653 18.76875,23.4566327 18.76875,24.8915816 C18.76875,26.9387755 18.75,28.5841837 18.75,29.1007653 C18.75,29.502551 19.03125,29.9808673 19.78125,29.8278061 C25.8870866,27.72447 29.9983525,21.8820232 30,15.3061224 C30,6.8494898 23.2875,3.39864191e-15 15,0 Z" id="Path"></path>
        </g>
    </g>
</svg>