
<svg width="30px" height="30px" viewBox="0 0 30 30" version="1.1" xmlns="http://www.w3.org/2000/svg" xmlns:xlink="http://www.w3.org/1999/xlink">
    <g id="Page-2" stroke="none" stroke-width="1" fill="none" fill-rule="evenodd">
        <g id="instagram-seeklogo.com" fill="#FFFFFF" fill-rule="nonzero">
            <path d="M26.5391852,30 L3.46081472,30 C1.54965412,30 0,28.4498021 0,26.5372995 L0,3.46084529 C0,1.54940278 1.54965412,0 3.46081472,0 L26.5391852,0 C28.4506109,0 30,1.54940278 30,3.46084529 L30,26.5372995 C30,28.4498021 28.4506109,30 26.5391852,30 Z M14.9998675,9.23042264 C11.813363,9.23042264 9.23060613,11.8129373 9.23060613,14.99947 C9.23060613,18.1854724 11.813363,20.7693123 14.9998675,20.7693123 C18.186372,20.7693123 20.7696589,18.1854724 20.7696589,14.99947 C20.7696589,11.8129373 18.186372,9.23042264 14.9998675,9.23042264 Z M26.5391852,4.61454873 C26.5391852,3.97766626 26.0223689,3.46084529 25.3841668,3.46084529 L21.9233522,3.46084529 C21.2859452,3.46084529 20.7696589,3.97766626 20.7696589,4.61454873 L20.7696589,8.0767192 C20.7696589,8.71360167 21.2859452,9.23042264 21.9233522,9.23042264 L25.3841668,9.23042264 C26.0223689,9.23042264 26.5391852,8.71360167 26.5391852,8.0767192 L26.5391852,4.61454873 Z M26.5391852,12.6910029 L23.9275397,12.6910029 C24.1178341,13.4296594 24.2302086,14.2014454 24.2302086,14.99947 C24.2302086,20.0982402 20.0977976,24.2304226 14.9998675,24.2304226 C9.90220243,24.2304226 5.76952638,20.0982402 5.76952638,14.99947 C5.76952638,14.2014454 5.88243089,13.4296594 6.07272534,12.6910029 L3.46081472,12.6910029 L3.46081472,25.3843911 C3.46081472,26.0207435 3.97763113,26.5372995 4.61583313,26.5372995 L25.3841668,26.5372995 C26.0223689,26.5372995 26.5391852,26.0207435 26.5391852,25.3843911 L26.5391852,12.6910029 Z" id="Shape"></path>
        </g>
    </g>
</svg>