
<svg width="40px" height="40px" viewBox="0 0 40 40" version="1.1" xmlns="http://www.w3.org/2000/svg" xmlns:xlink="http://www.w3.org/1999/xlink">
    <g id="Page-2" stroke="none" stroke-width="1" fill="none" fill-rule="evenodd">
        <g id="instagram-seeklogo.com" fill="#FFFFFF" fill-rule="nonzero">
            <path d="M35.3855803,40 L4.61441963,40 C2.0662055,40 0,37.9330695 0,35.3830659 L0,4.61446039 C0,2.06587037 2.0662055,0 4.61441963,0 L35.3855803,0 C37.9341478,0 40,2.06587037 40,4.61446039 L40,35.3830659 C40,37.9330695 37.9341478,40 35.3855803,40 Z M19.9998233,12.3072302 C15.7511506,12.3072302 12.3074748,15.7505831 12.3074748,19.9992933 C12.3074748,24.2472966 15.7511506,27.6924164 19.9998233,27.6924164 C24.2484959,27.6924164 27.6928786,24.2472966 27.6928786,19.9992933 C27.6928786,15.7505831 24.2484959,12.3072302 19.9998233,12.3072302 Z M35.3855803,6.15273164 C35.3855803,5.30355502 34.6964919,4.61446039 33.8455558,4.61446039 L29.2311363,4.61446039 C28.3812603,4.61446039 27.6928786,5.30355502 27.6928786,6.15273164 L27.6928786,10.7689589 C27.6928786,11.6181356 28.3812603,12.3072302 29.2311363,12.3072302 L33.8455558,12.3072302 C34.6964919,12.3072302 35.3855803,11.6181356 35.3855803,10.7689589 L35.3855803,6.15273164 Z M35.3855803,16.9213372 L31.9033863,16.9213372 C32.1571122,17.9062125 32.3069448,18.9352605 32.3069448,19.9992933 C32.3069448,26.7976536 26.7970634,32.3072302 19.9998233,32.3072302 C13.2029366,32.3072302 7.69270184,26.7976536 7.69270184,19.9992933 C7.69270184,18.9352605 7.84324119,17.9062125 8.09696713,16.9213372 L4.61441963,16.9213372 L4.61441963,33.8458548 C4.61441963,34.6943247 5.30350817,35.3830659 6.15444417,35.3830659 L33.8455558,35.3830659 C34.6964919,35.3830659 35.3855803,34.6943247 35.3855803,33.8458548 L35.3855803,16.9213372 Z" id="Shape"></path>
        </g>
    </g>
</svg>