<svg width="40px" height="40px" viewBox="0 0 40 40" version="1.1" xmlns="http://www.w3.org/2000/svg" xmlns:xlink="http://www.w3.org/1999/xlink">
    <g id="Page-2" stroke="none" stroke-width="1" fill="none" fill-rule="evenodd">
        <g id="LinkedIn" fill="#FFFFFF" fill-rule="nonzero">
            <path d="M37.044898,0 L2.95510204,0 C1.32244898,0 0,1.28163265 0,2.86530612 L0,37.1346939 C0,38.7183673 1.32244898,40 2.95510204,40 L37.044898,40 C38.677551,40 40,38.7142857 40,37.1346939 L40,2.86530612 C40,1.28163265 38.677551,0 37.044898,0 Z M12.1265306,33.4816327 L6.08163265,33.4816327 L6.08163265,15.4244898 L12.1265306,15.4244898 L12.1265306,33.4816327 Z M9.10612245,12.955102 L9.06530612,12.955102 C7.03673469,12.955102 5.72653061,11.5673469 5.72653061,9.83265306 C5.72653061,8.06122449 7.07755102,6.71428571 9.14693878,6.71428571 C11.2122449,6.71428571 12.4857143,8.06122449 12.5265306,9.83265306 C12.522449,11.5714286 11.2122449,12.955102 9.10612245,12.955102 Z M33.9142857,33.4816327 L27.8734694,33.4816327 L27.8734694,23.8204082 C27.8734694,21.3918367 27,19.7346939 24.8122449,19.7346939 C23.1387755,19.7346939 22.1469388,20.8530612 21.7142857,21.9306122 C21.5510204,22.3142857 21.5142857,22.8530612 21.5142857,23.3918367 L21.5142857,33.477551 L15.4693878,33.477551 C15.4693878,33.477551 15.5469388,17.1102041 15.4693878,15.4163265 L21.5102041,15.4163265 L21.5102041,17.9755102 C22.3102041,16.7469388 23.7469388,14.9918367 26.955102,14.9918367 C30.9306122,14.9918367 33.9142857,17.5714286 33.9142857,23.122449 L33.9142857,33.4816327 Z M21.4734694,18.0836735 C21.5034694,18.055102 21.5334694,18.0193878 21.5734694,17.9836735 L21.5734694,18.0836735 L21.4734694,18.0836735 Z" id="LinkedIn__x28_alt_x29_"></path>
        </g>
    </g>
</svg>