
<svg width="30px" height="30px" viewBox="0 0 30 30" version="1.1" xmlns="http://www.w3.org/2000/svg" xmlns:xlink="http://www.w3.org/1999/xlink">
    <g id="Page-2" stroke="none" stroke-width="1" fill="none" fill-rule="evenodd">
        <g id="LinkedIn" fill="#FFFFFF" fill-rule="nonzero">
            <path d="M27.7836735,0 L2.21632653,0 C0.991836735,0 0,0.96122449 0,2.14897959 L0,27.8510204 C0,29.0387755 0.991836735,30 2.21632653,30 L27.7836735,30 C29.0081633,30 30,29.0357143 30,27.8510204 L30,2.14897959 C30,0.96122449 29.0081633,0 27.7836735,0 Z M9.09489796,25.1112245 L4.56122449,25.1112245 L4.56122449,11.5683673 L9.09489796,11.5683673 L9.09489796,25.1112245 Z M6.82959184,9.71632653 L6.79897959,9.71632653 C5.27755102,9.71632653 4.29489796,8.6755102 4.29489796,7.3744898 C4.29489796,6.04591837 5.30816327,5.03571429 6.86020408,5.03571429 C8.40918367,5.03571429 9.36428571,6.04591837 9.39489796,7.3744898 C9.39183673,8.67857143 8.40918367,9.71632653 6.82959184,9.71632653 Z M25.4357143,25.1112245 L20.905102,25.1112245 L20.905102,17.8653061 C20.905102,16.0438776 20.25,14.8010204 18.6091837,14.8010204 C17.3540816,14.8010204 16.6102041,15.6397959 16.2857143,16.4479592 C16.1632653,16.7357143 16.1357143,17.1397959 16.1357143,17.5438776 L16.1357143,25.1081633 L11.6020408,25.1081633 C11.6020408,25.1081633 11.6602041,12.8326531 11.6020408,11.5622449 L16.1326531,11.5622449 L16.1326531,13.4816327 C16.7326531,12.5602041 17.8102041,11.2438776 20.2163265,11.2438776 C23.1979592,11.2438776 25.4357143,13.1785714 25.4357143,17.3418367 L25.4357143,25.1112245 Z M16.105102,13.5877551 C16.135102,13.5591837 16.165102,13.5234694 16.205102,13.4877551 L16.205102,13.5877551 L16.105102,13.5877551 Z" id="LinkedIn__x28_alt_x29_"></path>
        </g>
    </g>
</svg>