
<svg width="192px" height="60px" viewBox="0 0 192 60" version="1.1" xmlns="http://www.w3.org/2000/svg" xmlns:xlink="http://www.w3.org/1999/xlink">
    <g id="Page-2" stroke="none" stroke-width="1" fill="none" fill-rule="evenodd">
        <g id="swift">
            <g id="Group">
                <path d="M59.3867,16.4501 C59.3832,15.8528 59.3766,15.2558 59.3601,14.6578 C59.3253,13.357 59.2484,12.0444 59.0172,10.7575 C58.7826,9.4506 58.3991,8.2354 57.7947,7.0482 C57.2014,5.8823 56.4258,4.8154 55.5006,3.8902 C54.5756,2.965 53.5087,2.1895 52.3423,1.5959 C51.1561,0.9922 49.9407,0.6088 48.635,0.3742 C47.3474,0.1423 46.0348,0.0659 44.733,0.0307 C44.1353,0.0145 43.5382,0.0077 42.9407,0.004 C42.2315,0 41.5218,0 40.8128,0 L25.0912,0 L18.5781,0 C17.8684,0 17.1595,0 16.4505,0.0041 C15.8528,0.0078 15.255,0.0146 14.6582,0.0308 C14.3328,0.0396 14.0067,0.051 13.6804,0.0667 C12.7016,0.1139 11.7213,0.2004 10.7561,0.3743 C9.7768,0.5503 8.8482,0.8099 7.9448,1.1834 C7.6437,1.3078 7.3453,1.445 7.0487,1.5959 C6.1739,2.0411 5.3549,2.5886 4.61,3.2248 C4.3617,3.4369 4.1216,3.6588 3.8904,3.8901 C2.965,4.8153 2.1894,5.8822 1.5961,7.0481 C0.9917,8.2353 0.6087,9.4505 0.3739,10.7574 C0.1429,12.0443 0.0661,13.3569 0.0311,14.6577 C0.0147,15.2557 0.0078,15.8527 0.0039,16.45 C-0.0006,17.1594 0,17.8689 0,18.5781 L0,28.26 L0,40.8125 C0,41.5224 -0.0007,42.2312 0.0039,42.9411 C0.0078,43.5384 0.0147,44.1354 0.0311,44.7324 C0.0661,46.0339 0.1428,47.3468 0.3739,48.6331 C0.6087,49.9396 0.9917,51.1559 1.5961,52.3428 C2.1894,53.509 2.965,54.5756 3.8904,55.5004 C4.8151,56.426 5.8823,57.2014 7.0488,57.7954 C8.2351,58.3992 9.4504,58.7821 10.7564,59.0167 C12.0432,59.2483 13.3568,59.3253 14.6583,59.3601 C15.2551,59.376 15.8529,59.3831 16.4506,59.3865 C17.1596,59.3916 17.8685,59.3909 18.5782,59.3909 L40.8128,59.3909 C41.5218,59.3909 42.2315,59.3916 42.9406,59.3865 C43.5381,59.3831 44.1352,59.376 44.7329,59.3601 C46.0347,59.3253 47.3473,59.2482 48.6349,59.0167 C49.9406,58.7821 51.156,58.3991 52.3422,57.7954 C53.5086,57.2015 54.5755,56.426 55.5005,55.5004 C56.4257,54.5755 57.2014,53.509 57.7946,52.3428 C58.399,51.1559 58.7825,49.9397 59.0171,48.6331 C59.2483,47.3468 59.3252,46.0339 59.36,44.7324 C59.3764,44.1354 59.383,43.5385 59.3866,42.9411 C59.3912,42.2312 59.3908,41.5224 59.3908,40.8125 L59.3908,18.5781 C59.3909,17.8689 59.3912,17.1594 59.3867,16.4501 Z" id="Path" fill="#F05138"></path>
                <path d="M47.0606,36.6607 C47.0592,36.6589 47.0579,36.6576 47.0564,36.6559 C47.1221,36.4323 47.1899,36.2101 47.2474,35.9809 C49.7124,26.16 43.6963,14.549 33.5158,8.4355 C37.9771,14.4834 39.9497,21.8088 38.1971,28.215 C38.0408,28.7864 37.8529,29.3348 37.6452,29.8678 C37.4198,29.7197 37.1358,29.5516 36.7544,29.3413 C36.7544,29.3413 26.6275,23.0886 15.6516,12.0291 C15.3636,11.7388 21.5044,20.8061 28.4735,28.169 C25.1901,26.3263 16.0397,19.6686 10.2469,14.3667 C10.9586,15.5536 11.8051,16.6965 12.7356,17.7968 C17.5731,23.9317 23.8818,31.5012 31.4399,37.3137 C26.1295,40.5635 18.6258,40.8162 11.1547,37.3171 C9.3068,36.4511 7.5696,35.4062 5.9615,34.219 C9.124,39.2775 13.9947,43.6419 19.9228,46.1898 C26.9923,49.2279 34.0224,49.0219 39.2584,46.2396 L39.2543,46.2456 C39.2782,46.2305 39.3086,46.214 39.3334,46.1987 C39.5484,46.0831 39.7618,45.9654 39.9705,45.8411 C42.4862,44.5353 47.4552,43.2105 50.1223,48.3999 C50.7755,49.6699 52.1635,42.9395 47.0606,36.6607 Z" id="Path" fill="#FFFFFF"></path>
            </g>
            <g id="XMLID_1_" transform="translate(76.000000, 9.000000)" fill="#FFFFFF">
                <g id="Group">
                    <path d="M5.9306,29.5423 C6.3946,33.6626 10.3244,36.364 15.782,36.364 C20.9674,36.364 24.7059,33.6626 24.7059,29.9247 C24.7059,26.7044 22.4411,24.7387 17.2283,23.4294 L12.1799,22.1469 C4.9209,20.3456 1.6459,17.0705 1.6459,11.6677 C1.6459,5.0092 7.4586,0.3968 15.7278,0.3968 C23.7504,0.3968 29.4541,5.036 29.6453,11.7225 L24.3241,11.7225 C23.9143,7.629 20.585,5.1176 15.5914,5.1176 C10.6514,5.1176 7.2131,7.6558 7.2131,11.3669 C7.2131,14.2595 9.3421,15.9793 14.5817,17.3166 L18.7842,18.4079 C26.9165,20.4005 30.2457,23.5659 30.2457,29.2696 C30.2457,36.5286 24.4872,41.0862 15.3179,41.0862 C6.8038,41.0862 0.9911,36.5554 0.5545,29.5425 L5.9306,29.5425 L5.9306,29.5423 Z" id="Path"></path>
                    <polygon id="Path" points="64.0488 40.4308 58.6996 40.4308 52.4503 18.6538 52.3413 18.6538 46.1194 40.4308 40.7708 40.4308 32.8566 11.9125 38.0414 11.9125 43.5538 34.8088 43.6634 34.8088 49.8853 11.9125 54.9063 11.9125 61.183 34.8088 61.2926 34.8088 66.8051 11.9125 71.9351 11.9125"></polygon>
                    <path d="M75.3891,4.2442 C75.3891,2.5257 76.8086,1.1336 78.5278,1.1336 C80.2744,1.1336 81.6933,2.5257 81.6933,4.2442 C81.6933,5.9639 80.2744,7.3829 78.5278,7.3829 C76.8086,7.3829 75.3891,5.964 75.3891,4.2442 Z M75.9353,11.9125 L81.1475,11.9125 L81.1475,40.4308 L75.9353,40.4308 L75.9353,11.9125 Z" id="Shape" fill-rule="nonzero"></path>
                    <path d="M115.1856,16.1156 L115.1856,11.9124 L109.6731,11.9124 L109.6731,5.0907 L104.4877,5.0907 L104.4877,11.9124 L100.2578,11.9124 L94.5243,11.9124 L94.5243,9.4022 C94.5511,6.864 95.5339,5.7995 97.881,5.7995 C98.6446,5.7995 99.4089,5.8823 100.0368,5.9907 L100.0368,1.8972 C99.1087,1.7608 98.2628,1.6792 97.2806,1.6792 C91.7133,1.6792 89.3664,3.9994 89.3664,9.3206 L89.3664,11.9124 L85.3825,11.9124 L85.3825,16.1156 L89.3664,16.1156 L89.3664,40.4307 L94.5512,40.4307 L94.5512,16.1156 L100.2579,16.1156 L104.4878,16.1156 L104.4878,32.9537 C104.4878,38.4662 106.5894,40.5939 112.047,40.5939 C113.2205,40.5939 114.5578,40.5123 115.1583,40.3759 L115.1583,36.1192 C114.8033,36.174 113.7661,36.2556 113.1932,36.2556 C110.7646,36.2556 109.6733,35.1095 109.6733,32.5445 L109.6733,16.1156 L115.1856,16.1156 Z" id="Path"></path>
                </g>
            </g>
        </g>
    </g>
</svg>